<svg xmlns="http://www.w3.org/2000/svg" viewBox="0 0 720 720"><defs><style>.cls-1{fill:#a0c3ff;}.cls-2{fill:#fff;opacity:0.15;}.cls-13,.cls-3{opacity:0.5;}.cls-4{fill:#6081aa;opacity:0;}.cls-5{fill:#5d7da5;opacity:0.06;}.cls-6{fill:#5a79a0;opacity:0.11;}.cls-7{fill:#58769c;opacity:0.17;}.cls-8{fill:#557297;opacity:0.22;}.cls-9{fill:#526f92;opacity:0.28;}.cls-10{fill:#4f6b8d;opacity:0.33;}.cls-11{fill:#4d6889;opacity:0.39;}.cls-12{fill:#4a6484;opacity:0.44;}.cls-13{fill:#47607f;}.cls-14{fill:#455c7a;opacity:0.56;}.cls-15{fill:#425975;opacity:0.61;}.cls-16{fill:#405671;opacity:0.67;}.cls-17{fill:#3d526c;opacity:0.72;}.cls-18{fill:#3a4e67;opacity:0.78;}.cls-19{fill:#374a62;opacity:0.83;}.cls-20{fill:#35475e;opacity:0.89;}.cls-21{fill:#324359;opacity:0.94;}.cls-22{fill:#2f4054;}.cls-23{fill:#457cdd;opacity:0.9;}</style></defs><g id="Layer_3" data-name="Layer 3"><rect class="cls-1" width="720" height="720"/><path class="cls-2" d="M0,0V318.82a541.47,541.47,0,0,0,363,139A541.41,541.41,0,0,0,720,324.13V0Z"/></g><g id="Layer_2" data-name="Layer 2"><g class="cls-3"><path class="cls-4" d="M77,703.87c0-130.21,99.53-237.15,226.66-248.93a149.64,149.64,0,1,1,112.72,0C543.49,466.72,643,573.66,643,703.87V720h2V703.87A252,252,0,0,0,424.07,453.76a151.63,151.63,0,1,0-128.14,0A252,252,0,0,0,75,703.87V720h2Z"/><path class="cls-5" d="M77,703.87c0-130.21,99.53-237.15,226.66-248.93a149.64,149.64,0,1,1,112.72,0C543.49,466.72,643,573.66,643,703.87V720H645V703.87A252,252,0,0,0,423.79,453.8a151.55,151.55,0,1,0-127.58,0A252,252,0,0,0,75.06,703.87V720H77Z"/><path class="cls-6" d="M77,703.87c0-130.21,99.53-237.15,226.66-248.93a149.64,149.64,0,1,1,112.72,0C543.49,466.72,643,573.66,643,703.87V720h1.85V703.87a251.87,251.87,0,0,0-221.36-250,151.48,151.48,0,1,0-127,0,251.87,251.87,0,0,0-221.36,250V720H77Z"/><path class="cls-7" d="M77,703.87c0-130.21,99.53-237.15,226.66-248.93a149.64,149.64,0,1,1,112.72,0C543.49,466.72,643,573.66,643,703.87V720h1.78V703.87a251.82,251.82,0,0,0-221.57-250,151.4,151.4,0,1,0-126.46,0,251.82,251.82,0,0,0-221.57,250V720H77Z"/><path class="cls-8" d="M77,703.87c0-130.21,99.53-237.15,226.66-248.93a149.64,149.64,0,1,1,112.72,0C543.49,466.72,643,573.66,643,703.87V720h1.7V703.87A251.72,251.72,0,0,0,423,453.93a151.35,151.35,0,1,0-125.9,0A251.72,251.72,0,0,0,75.28,703.87V720H77Z"/><path class="cls-9" d="M77,703.87c0-130.21,99.53-237.15,226.66-248.93a149.64,149.64,0,1,1,112.72,0C543.49,466.72,643,573.66,643,703.87V720h1.63V703.87A251.67,251.67,0,0,0,422.67,454a151.27,151.27,0,1,0-125.34,0,251.67,251.67,0,0,0-222,249.89V720H77Z"/><path class="cls-10" d="M77,703.87c0-130.21,99.53-237.15,226.66-248.93a149.64,149.64,0,1,1,112.72,0C543.49,466.72,643,573.66,643,703.87V720h1.55V703.87A251.58,251.58,0,0,0,422.39,454a151.21,151.21,0,1,0-124.78,0A251.58,251.58,0,0,0,75.43,703.87V720H77Z"/><path class="cls-11" d="M77,703.87c0-130.21,99.53-237.15,226.66-248.93a149.64,149.64,0,1,1,112.72,0C543.49,466.72,643,573.66,643,703.87V720h1.48V703.87A251.53,251.53,0,0,0,422.11,454.06a151.13,151.13,0,1,0-124.22,0A251.53,251.53,0,0,0,75.5,703.87V720H77Z"/><path class="cls-12" d="M77,703.87c0-130.21,99.53-237.15,226.66-248.93a149.64,149.64,0,1,1,112.72,0C543.49,466.72,643,573.66,643,703.87V720h1.4V703.87A251.42,251.42,0,0,0,421.83,454.11a151,151,0,1,0-123.66,0A251.42,251.42,0,0,0,75.58,703.87V720H77Z"/><path class="cls-13" d="M77,703.87c0-130.21,99.53-237.15,226.66-248.93a149.64,149.64,0,1,1,112.72,0C543.49,466.72,643,573.66,643,703.87V720h1.33V703.87a251.37,251.37,0,0,0-222.8-249.72,151,151,0,1,0-123.1,0A251.37,251.37,0,0,0,75.65,703.87V720H77Z"/><path class="cls-14" d="M77,703.87c0-130.21,99.53-237.15,226.66-248.93a149.64,149.64,0,1,1,112.72,0C543.49,466.72,643,573.66,643,703.87V720h1.26V703.87a251.3,251.3,0,0,0-223-249.68,150.91,150.91,0,1,0-122.54,0,251.3,251.3,0,0,0-223,249.68V720H77Z"/><path class="cls-15" d="M77,703.87c0-130.21,99.53-237.15,226.66-248.93a149.64,149.64,0,1,1,112.72,0C543.49,466.72,643,573.66,643,703.87V720h1.18V703.87A251.21,251.21,0,0,0,421,454.24a150.83,150.83,0,1,0-122,0A251.21,251.21,0,0,0,75.8,703.87V720H77Z"/><path class="cls-16" d="M77,703.87c0-130.21,99.53-237.15,226.66-248.93a149.64,149.64,0,1,1,112.72,0C543.49,466.72,643,573.66,643,703.87V720h1.11V703.87A251.14,251.14,0,0,0,420.71,454.28a150.75,150.75,0,1,0-121.42,0A251.14,251.14,0,0,0,75.87,703.87V720H77Z"/><path class="cls-17" d="M77,703.87c0-130.21,99.53-237.15,226.66-248.93a149.64,149.64,0,1,1,112.72,0C543.49,466.72,643,573.66,643,703.87V720h1V703.87A251.07,251.07,0,0,0,420.43,454.32a150.69,150.69,0,1,0-120.86,0A251.07,251.07,0,0,0,76,703.87V720h1Z"/><path class="cls-18" d="M77,703.87c0-130.21,99.53-237.15,226.66-248.93a149.64,149.64,0,1,1,112.72,0C543.49,466.72,643,573.66,643,703.87V720h1V703.87a251,251,0,0,0-223.83-249.5,150.6,150.6,0,1,0-120.3,0A251,251,0,0,0,76,703.87V720h1Z"/><path class="cls-19" d="M77,703.87c0-130.21,99.53-237.15,226.66-248.93a149.64,149.64,0,1,1,112.72,0C543.49,466.72,643,573.66,643,703.87V720h.88V703.87a250.92,250.92,0,0,0-224-249.46,150.54,150.54,0,1,0-119.74,0,250.92,250.92,0,0,0-224,249.46V720H77Z"/><path class="cls-20" d="M77,703.87c0-130.21,99.53-237.15,226.66-248.93a149.64,149.64,0,1,1,112.72,0C543.49,466.72,643,573.66,643,703.87V720h.81V703.87A250.85,250.85,0,0,0,419.59,454.45a150.45,150.45,0,1,0-119.18,0A250.85,250.85,0,0,0,76.17,703.87V720H77Z"/><path class="cls-21" d="M77,703.87c0-130.21,99.53-237.15,226.66-248.93a149.64,149.64,0,1,1,112.72,0C543.49,466.72,643,573.66,643,703.87V720h.73V703.87A250.79,250.79,0,0,0,419.31,454.49a150.36,150.36,0,1,0-118.62,0A250.79,250.79,0,0,0,76.25,703.87V720H77Z"/><path class="cls-22" d="M77,703.87c0-130.21,99.53-237.15,226.66-248.93a149.64,149.64,0,1,1,112.72,0C543.49,466.72,643,573.66,643,703.87V720h.66V703.87A250.7,250.7,0,0,0,419,454.54a150.29,150.29,0,1,0-118.07,0A250.7,250.7,0,0,0,76.32,703.87V720H77Z"/></g><path class="cls-23" d="M416.36,454.94a149.64,149.64,0,1,0-112.72,0C176.51,466.72,77,573.66,77,703.87V720H643V703.87C643,573.66,543.49,466.72,416.36,454.94Z"/></g></svg>